<?xml version="1.0" encoding="UTF-8"?>
<svg version="1.1" xmlns="http://www.w3.org/2000/svg" width="700" height="700">
<path d="M0 0 C1.39231687 -0.00346759 2.78463098 -0.00823946 4.17693949 -0.01418173 C7.95649714 -0.02657048 11.73582416 -0.02057752 15.51538205 -0.01122308 C19.60952809 -0.00438252 23.70363686 -0.0149384 27.79777527 -0.02316284 C35.79987777 -0.0364494 43.80189549 -0.0336452 51.80400121 -0.02492492 C58.31191218 -0.01812869 64.81979951 -0.01724001 71.32771301 -0.02049637 C72.25664656 -0.02095607 73.1855801 -0.02141577 74.14266315 -0.0218894 C76.03022318 -0.02284865 77.9177832 -0.02382129 79.80534321 -0.02480717 C97.47333728 -0.03334619 115.14128453 -0.02355034 132.80927092 -0.00740607 C147.94411908 0.00599575 163.0788982 0.00366724 178.21374512 -0.01016235 C195.82181416 -0.02624452 213.42984225 -0.03252236 231.03791761 -0.02332556 C232.918238 -0.02236999 234.79855839 -0.02142688 236.67887878 -0.02049637 C237.60384845 -0.02003354 238.52881811 -0.01957072 239.48181716 -0.01909386 C245.97615416 -0.01651188 252.47046502 -0.02085784 258.96479797 -0.02793503 C266.88746266 -0.03637958 274.81003826 -0.03400808 282.73269284 -0.0180928 C286.76903629 -0.01024965 290.80523162 -0.00705026 294.84157372 -0.01704025 C298.54640973 -0.02607056 302.25096226 -0.02091947 305.95577306 -0.0051076 C307.9094052 -0.00024204 309.8630575 -0.00988112 311.81666803 -0.02027929 C335.44339401 0.13445873 354.07569265 8.42525798 371.1907959 24.56845093 C389.17160417 43.14602484 394.02844198 65.60066595 393.84387207 90.64096069 C393.84302296 92.28876734 393.84350645 93.93657511 393.84519958 95.5843811 C393.84604991 99.99862591 393.82858286 104.41261924 393.80747771 108.82680631 C393.78854775 113.46186072 393.78694776 118.09692278 393.78340149 122.73200989 C393.77412845 131.48278402 393.74957984 140.23344387 393.71935302 148.98416799 C393.68566016 158.95775411 393.66928582 168.93134607 393.65426672 178.90497506 C393.62302529 199.39703046 393.57035846 219.88898346 393.5032959 240.38095093 C394.39170166 240.44217133 395.28010742 240.50339172 396.19543457 240.56646729 C397.3630835 240.65074982 398.53073242 240.73503235 399.73376465 240.8218689 C401.46856079 240.94463699 401.46856079 240.94463699 403.23840332 241.06988525 C418.63931851 242.53722176 432.85458856 250.62060825 444.5032959 260.38095093 C445.30122559 260.98036499 446.09915527 261.57977905 446.92126465 262.19735718 C461.91925066 274.88097924 470.31045199 294.53806031 473.2532959 313.56845093 C474.20254303 328.04446967 472.7578308 341.61334342 467.3782959 355.13095093 C467.00885864 356.0845752 467.00885864 356.0845752 466.63195801 357.0574646 C460.52321817 371.38721075 449.41749576 382.01415778 438.53063965 392.74423218 C436.99562712 394.27176672 435.46150839 395.80019991 433.92823792 397.32948303 C429.92750372 401.31508363 425.91489918 405.28851406 421.89953613 409.2593689 C417.78938791 413.32829728 413.690809 417.40884432 409.59118652 421.4883728 C401.57304967 429.46385589 393.54230018 437.42650568 385.5032959 445.38095093 C387.07447142 449.42313813 388.95247952 452.74236064 391.38220215 456.31845093 C393.43323404 460.0917779 393.62957539 464.05351213 393.66442871 468.28451538 C393.67403625 469.23353226 393.6836438 470.18254913 393.69354248 471.1603241 C393.69779236 472.17801376 393.70204224 473.19570343 393.7064209 474.24423218 C393.71212097 475.30901291 393.71782104 476.37379364 393.72369385 477.47084045 C393.73313342 479.72773246 393.73967368 481.98463818 393.74353027 484.24154663 C393.75315342 487.64308909 393.78415268 491.04400541 393.8157959 494.44540405 C393.9481735 521.31177044 389.07067053 543.79125413 369.8157959 563.63095093 C347.56177571 585.54546061 320.25759862 586.84725379 290.74263418 586.77312493 C286.70231925 586.7662769 282.66204184 586.77684393 278.62173462 586.7850647 C270.72671483 586.79834379 262.83178103 586.79555032 254.93675799 586.78682677 C248.51470041 586.78002709 242.09266677 586.77914334 235.67060661 586.78239822 C234.29492787 586.78308777 234.29492787 586.78308777 232.89145763 586.78379125 C231.0278186 586.78475052 229.16417958 586.78572316 227.30054056 586.78670903 C209.86043608 586.79524599 192.42037905 586.7854557 174.98028236 586.76930793 C160.04676768 586.75590854 145.11332299 586.75823301 130.17980957 586.77206421 C112.79987769 586.78815392 95.41998731 586.79441982 78.04004902 586.78522742 C76.18329967 586.78427186 74.32655031 586.78332875 72.46980095 586.78239822 C71.55646414 586.7819354 70.64312733 586.78147257 69.70211365 586.78099572 C63.29536721 586.77841582 56.88864731 586.7827552 50.48190498 586.78983688 C42.66325907 586.79828997 34.84470339 586.79589236 27.02606768 586.77999465 C23.04415104 586.77216248 19.06238433 586.76893288 15.08046913 586.77894211 C-11.50531685 586.84021976 -35.117777 586.00918906 -56.4967041 568.38095093 C-57.66266113 567.45862671 -57.66266113 567.45862671 -58.85217285 566.51766968 C-73.8293717 554.06674533 -82.70658181 536.46221382 -85.4967041 517.38095093 C-86.05214802 510.70224669 -85.88284029 504.01159958 -85.7467041 497.31845093 C-85.72656878 495.56521657 -85.70833068 493.81195938 -85.6920166 492.0586853 C-85.64866821 487.83219181 -85.58004859 483.60683703 -85.4967041 479.38095093 C-86.22618256 479.39205399 -86.95566101 479.40315704 -87.70724487 479.41459656 C-94.62057398 479.51525979 -101.53379194 479.59114832 -108.44766808 479.64001179 C-112.00128105 479.66597914 -115.5542827 479.70113576 -119.10754395 479.75814819 C-123.20346558 479.82344776 -127.29875672 479.84723722 -131.3951416 479.86923218 C-132.65595551 479.8950386 -133.91676941 479.92084503 -135.21578979 479.94743347 C-144.04862545 479.95021214 -151.00113591 478.53504741 -157.63473511 472.40531921 C-162.98479246 466.75824816 -165.61707532 461.33506767 -165.9342041 453.50595093 C-165.73635441 446.32041003 -163.79903868 441.11886232 -159.1842041 435.63095093 C-152.54476119 430.07234756 -148.39543355 427.24881074 -139.53479004 427.26742554 C-138.33384705 427.26750107 -137.13290405 427.2675766 -135.89556885 427.26765442 C-133.95789642 427.27539635 -133.95789642 427.27539635 -131.9810791 427.28329468 C-130.64158175 427.28516076 -129.30208372 427.28658377 -127.96258545 427.2875824 C-124.44447938 427.29139258 -120.92641489 427.30121002 -117.4083252 427.31228638 C-113.81539482 427.32253276 -110.2224575 427.32714178 -106.6295166 427.3321228 C-99.58520911 427.34230244 -92.54101562 427.36187788 -85.4967041 427.38095093 C-85.8267041 409.56095093 -86.1567041 391.74095093 -86.4967041 373.38095093 C-103.48871249 373.4598617 -103.48871249 373.4598617 -120.48059082 373.56112671 C-122.62918905 373.56697431 -124.77778951 373.57206923 -126.9263916 373.57626343 C-128.01959717 373.58649536 -129.11280273 373.59672729 -130.23913574 373.60726929 C-140.91591765 373.60967018 -150.30813866 372.77253767 -158.4967041 365.38095093 C-164.32681919 358.3137736 -165.9432907 352.63321031 -165.8326416 343.54891968 C-164.98599806 335.56487421 -160.77370856 329.99233859 -154.85217285 324.85360718 C-147.01611541 319.95444689 -139.82681155 319.97621438 -130.8092041 320.08798218 C-129.51095703 320.09222702 -128.21270996 320.09647186 -126.87512207 320.10084534 C-123.44897653 320.11221671 -120.02322176 320.1416155 -116.597229 320.17495728 C-113.09111917 320.20582612 -109.58494337 320.21955155 -106.07873535 320.23446655 C-99.21771488 320.26489686 -92.35776285 320.32363391 -85.4967041 320.38095093 C-85.4967041 302.56095093 -85.4967041 284.74095093 -85.4967041 266.38095093 C-89.57916504 266.41575562 -93.66162598 266.4505603 -97.86779785 266.48641968 C-101.14417497 266.50574281 -104.42053577 266.52200048 -107.69693756 266.53620148 C-111.14390188 266.55197547 -114.59064114 266.57301797 -118.03747559 266.60726929 C-122.00172107 266.64641099 -125.96587797 266.66071721 -129.93029785 266.67391968 C-131.15252548 266.68940353 -132.37475311 266.70488739 -133.63401794 266.72084045 C-143.53912265 266.72277443 -151.37776324 265.45115839 -158.6998291 258.45126343 C-164.295191 252.00443342 -166.26144917 245.69715886 -165.8482666 237.20516968 C-164.94399904 229.94088695 -162.10811326 224.18572002 -156.4967041 219.38095093 C-149.74419832 215.19309878 -143.7369616 213.24948308 -135.78845215 213.26742554 C-134.10727547 213.26753883 -134.10727547 213.26753883 -132.39213562 213.26765442 C-131.19301041 213.2728157 -129.99388519 213.27797699 -128.75842285 213.28329468 C-126.90456718 213.2854171 -126.90456718 213.2854171 -125.01325989 213.2875824 C-121.74012065 213.29222474 -118.46703123 213.30119782 -115.19390869 213.31228638 C-111.84888162 213.32254688 -108.50385237 213.32700462 -105.15881348 213.3321228 C-98.60473744 213.34229047 -92.05078451 213.36186755 -85.4967041 213.38095093 C-85.4967041 195.56095093 -85.4967041 177.74095093 -85.4967041 159.38095093 C-91.81955566 159.46796265 -91.81955566 159.46796265 -98.2701416 159.55673218 C-101.65567795 159.58894333 -105.04117033 159.6160371 -108.42677307 159.63970184 C-111.98734879 159.66597985 -115.54731816 159.70102402 -119.10754395 159.75814819 C-123.20346558 159.82344776 -127.29875672 159.84723722 -131.3951416 159.86923218 C-132.65595551 159.8950386 -133.91676941 159.92084503 -135.21578979 159.94743347 C-144.04862545 159.95021214 -151.00113591 158.53504741 -157.63473511 152.40531921 C-162.95443524 146.79029069 -165.60916311 141.34908162 -165.9967041 133.56845093 C-165.77725771 126.25357123 -163.53296005 120.74751087 -158.6295166 115.31063843 C-150.18507792 107.45763903 -142.88829866 106.95210314 -131.68811035 107.08798218 C-130.35290506 107.09358591 -129.01769355 107.09785233 -127.68247986 107.10084534 C-124.18892014 107.11223314 -120.69574183 107.14164669 -117.20233154 107.17495728 C-113.62928424 107.20579011 -110.05617457 107.21937873 -106.48303223 107.23446655 C-99.48743405 107.26652331 -92.49208745 107.31764494 -85.4967041 107.38095093 C-85.528125 105.78779053 -85.528125 105.78779053 -85.56018066 104.16244507 C-85.63384144 100.13491886 -85.67895033 96.10744881 -85.71643066 92.07943726 C-85.73626458 90.35244666 -85.76334051 88.62552054 -85.79846191 86.89877319 C-86.2916036 61.98786592 -79.94893004 41.55930965 -62.4967041 23.38095093 C-45.36856989 6.10839737 -23.79943027 -0.12667345 0 0 Z M-28.3170166 63.62313843 C-32.94475488 70.51877493 -33.62032405 76.66616202 -33.62813187 84.83800888 C-33.6301845 85.57131341 -33.63223713 86.30461795 -33.63435197 87.06014383 C-33.64000878 89.51863865 -33.63856635 91.97707722 -33.637146 94.43557739 C-33.63973038 96.21554321 -33.64274375 97.99550845 -33.6461494 99.77547288 C-33.65421389 104.66809344 -33.65600866 109.56069933 -33.65674686 114.45332575 C-33.65859835 119.72953847 -33.66614611 125.00574358 -33.67288208 130.2819519 C-33.68646148 141.81908915 -33.69248936 153.35622291 -33.69689274 164.89336681 C-33.69965553 172.09673066 -33.70389292 179.30009317 -33.70839691 186.50345612 C-33.7205885 206.44664806 -33.7308884 226.38983893 -33.734272 246.33303452 C-33.73449157 247.60931623 -33.73471114 248.88559794 -33.73493735 250.20055486 C-33.73515563 251.4798892 -33.73537391 252.75922354 -33.7355988 254.07732558 C-33.73604227 256.66974497 -33.73648883 259.26216435 -33.73693848 261.85458374 C-33.73715991 263.14051321 -33.73738134 264.42644268 -33.73760948 265.7513397 C-33.74155828 286.59230004 -33.75901532 307.43322544 -33.782298 328.27417228 C-33.8060078 349.6700667 -33.81847367 371.06594358 -33.81963992 392.46185136 C-33.82055683 404.47538802 -33.82631326 416.48887914 -33.84445953 428.50240326 C-33.8598554 438.7310743 -33.86498396 448.95968572 -33.85672143 459.18836614 C-33.85281328 464.40677829 -33.85375271 469.62507033 -33.86777878 474.84346771 C-33.88050738 479.62284743 -33.87932925 484.40201665 -33.86718807 489.18139604 C-33.86522929 490.9081685 -33.86831783 492.63495583 -33.87703243 494.36170742 C-33.93122634 505.82809597 -33.79391502 516.32076465 -26.24279785 525.62313843 C-21.43556061 530.46263901 -16.18710837 533.235943 -9.36517715 533.50399876 C-8.12260021 533.50307696 -6.88002327 533.50215517 -5.59979248 533.50120544 C-4.90625443 533.50205987 -4.21271638 533.50291429 -3.49816203 533.50379461 C-1.1750586 533.50544127 1.14797256 533.49994136 3.47106934 533.49447632 C5.13666278 533.49419425 6.80225636 533.49435257 8.46784973 533.49491882 C12.99020678 533.49520601 17.51253737 533.48932192 22.03488827 533.48234487 C26.76078597 533.4760983 31.48668426 533.47550649 36.21258545 533.47431946 C45.16207303 533.47120999 54.11154842 533.46300177 63.06103063 533.45296997 C73.24956149 533.4417969 83.43809293 533.43629537 93.6266284 533.43127453 C114.58552438 533.42081886 135.54440937 533.40322684 156.5032959 533.38095093 C156.34416214 532.45652695 156.18502838 531.53210297 156.02107239 530.57966614 C153.83221775 517.05737852 156.87710257 505.66480091 160.8157959 492.81845093 C161.36350664 490.9819378 161.90929106 489.14484919 162.45324707 487.30722046 C163.57233073 483.53254963 164.70113583 479.76097027 165.83532715 475.99081421 C167.45051912 470.59404236 168.98706264 465.17732127 170.5032959 459.75204468 C171.21437559 457.22496579 171.92622644 454.69810505 172.63815308 452.17126465 C173.08128685 450.59180855 173.52137645 449.01149439 173.95803833 447.43023682 C178.85717149 429.74004945 185.18748631 412.95084486 197.94299316 399.35580444 C198.82905542 398.40996034 198.82905542 398.40996034 199.73301792 397.44500828 C210.68720288 385.86376339 222.06090632 374.67816828 233.3372848 363.41263652 C236.83884098 359.91364173 240.33792321 356.4121742 243.8374176 352.91111755 C249.70154531 347.04518098 255.56775508 341.1813328 261.43518066 335.31869507 C268.20483024 328.55450601 274.97084271 321.78669488 281.73501772 315.01703161 C287.57045949 309.17704623 293.40785453 303.33901863 299.24687582 297.50261217 C302.72269018 294.0283511 306.19783882 290.55343137 309.67121696 287.07673454 C312.93010576 283.81494816 316.19144825 280.55563484 319.45466614 277.29817963 C320.64751127 276.1066511 321.83951675 274.91428128 323.03059578 273.72098732 C324.14017307 272.60953763 325.2511412 271.49947424 326.36367166 270.3909806 C327.39354454 269.36281971 328.41887198 268.33008115 329.43910372 267.2923528 C332.03885891 264.68005736 334.59661458 262.65285298 337.71308899 260.7129364 C340.26134135 258.55916921 340.51306593 257.3264153 341.11548519 253.96375179 C341.49790298 249.30030177 341.42722469 244.64272458 341.37731934 239.96786499 C341.38353309 238.1704078 341.39275482 236.37295888 341.40475464 234.57553101 C341.42811238 229.69895153 341.40752729 224.82345844 341.3777113 219.94694996 C341.35251757 214.83735947 341.36311708 209.72782697 341.36859131 204.61819458 C341.3721762 196.03340078 341.34762989 187.44903595 341.30603027 178.86434937 C341.25831336 168.95424679 341.25297923 159.0448239 341.2709806 149.13463807 C341.28748878 139.58886329 341.27558165 130.04333058 341.25025177 120.49758148 C341.2398774 116.44197109 341.23903507 112.38652645 341.24590302 108.33090973 C341.2525877 103.54702966 341.23418859 98.76386596 341.19688797 93.98013306 C341.18712766 92.22989288 341.18572003 90.47958193 341.19353104 88.72933197 C341.23606458 77.70779954 340.45863934 69.22571499 333.0657959 60.50595093 C326.89373273 55.38765464 322.76463337 53.26230509 314.82283592 53.24393654 C313.65758459 53.238862 312.49233327 53.23378745 311.29177129 53.22855914 C310.01066712 53.22806138 308.72956296 53.22756362 307.40963745 53.22705078 C306.03562757 53.22303497 304.66161888 53.21859655 303.2876116 53.21377122 C299.50783032 53.20181319 295.7280618 53.19615907 291.94826531 53.19159007 C287.87311482 53.18563109 283.79797957 53.17402202 279.72283936 53.16329956 C269.87936636 53.13878291 260.03588832 53.12414978 250.1923942 53.11123949 C247.41198709 53.10752712 244.63158049 53.10355393 241.85117388 53.09948683 C224.58355932 53.07425061 207.31594397 53.0521985 190.04831505 53.03975868 C186.0490964 53.03682901 182.04987777 53.03386734 178.05065918 53.03085327 C176.55968884 53.0297342 176.55968884 53.0297342 175.0385979 53.02859251 C158.93743643 53.01593941 142.8363854 52.98271639 126.73527555 52.94105144 C110.20301847 52.89862162 93.67081792 52.87506247 77.13850653 52.86983812 C67.85685349 52.86642527 58.57537307 52.8546849 49.29377365 52.82173538 C41.38897723 52.79371937 33.48438883 52.78274236 25.57954662 52.79393084 C21.54783318 52.79911347 17.51655526 52.79625686 13.48490524 52.7714653 C9.78961919 52.74893224 6.09508045 52.74974328 2.39978094 52.76866917 C0.43891147 52.77278133 -1.52196283 52.75235343 -3.48271906 52.73088229 C-13.71263875 52.82246524 -21.91495234 55.26790202 -28.3170166 63.62313843 Z M349.4979248 320.20932007 C348.2223462 321.47861847 346.94658408 322.74773247 345.6706543 324.01667786 C341.52020436 328.14629674 337.37489957 332.28106056 333.2298584 336.41610718 C331.79547615 337.84643615 330.36106205 339.27673317 328.92661667 340.70699883 C322.19435313 347.42026895 315.46446312 354.13590726 308.73750746 360.85449606 C300.99145775 368.59074883 293.23717348 376.31862502 285.47589934 384.03960329 C279.45930746 390.02603168 273.45041567 396.02011936 267.4472307 402.01999182 C263.86836937 405.59650613 260.28629878 409.1696584 256.69603348 412.73472786 C253.32353781 416.08392915 249.96070911 419.44254401 246.60498047 422.80854225 C245.37493574 424.03908185 244.14148444 425.26622746 242.90433884 426.48962784 C235.28856862 434.02551057 229.76555262 440.38560887 226.67224121 450.90731812 C226.37223206 451.91486145 226.0722229 452.92240479 225.76312256 453.96047974 C225.30193024 455.5530661 225.30193024 455.5530661 224.8314209 457.17782593 C224.50414001 458.28901794 224.17685913 459.40020996 223.83966064 460.54507446 C223.15373424 462.88040945 222.47152421 465.21683888 221.79284668 467.55429077 C220.75177017 471.13620033 219.69677956 474.71379859 218.64001465 478.29110718 C217.97382291 480.56560465 217.30843021 482.84033635 216.6439209 485.11532593 C216.32836243 486.18514709 216.01280396 487.25496826 215.68768311 488.35720825 C215.40028259 489.35214294 215.11288208 490.34707764 214.81677246 491.37216187 C214.43515961 492.68165802 214.43515961 492.68165802 214.0458374 494.01760864 C213.35413235 496.62657984 213.35413235 496.62657984 213.5032959 500.38095093 C220.62025668 499.07582317 227.53491323 497.35682695 234.4798584 495.33407593 C235.48994965 495.04039124 236.50004089 494.74670654 237.54074097 494.44412231 C239.66085471 493.82474759 241.78020149 493.20274196 243.89880371 492.57821655 C247.12216197 491.63275011 250.35152036 490.71002965 253.5814209 489.78720093 C255.6521449 489.17922574 257.7224718 488.56989603 259.7923584 487.95907593 C261.2254686 487.55558929 261.2254686 487.55558929 262.68753052 487.14395142 C263.59562469 486.87056946 264.50371887 486.5971875 265.43933105 486.31552124 C266.61986557 485.97149261 266.61986557 485.97149261 267.82424927 485.62051392 C277.39777758 481.19095632 284.57790165 472.60343838 291.92419434 465.25057983 C293.26822506 463.91254079 294.61266258 462.57491028 295.95747375 461.23765564 C299.59218192 457.62054298 303.22044719 453.99703468 306.8470068 450.37175417 C309.11538536 448.10480067 311.38518354 445.83927867 313.65549469 443.57426071 C321.58198791 435.66624177 329.50332671 427.75310198 337.4197998 419.83505249 C344.79067474 412.46297475 352.17264633 405.10213971 359.55988097 397.74645865 C365.91200257 391.42050137 372.25637598 385.08684364 378.59478974 378.74715173 C382.37625746 374.96517472 386.16074806 371.18635071 389.95305634 367.41524124 C393.51768199 363.87000198 397.07254596 360.31525532 400.62021446 356.75304985 C401.92121681 355.44995931 403.22562198 354.15025565 404.53370857 352.85427666 C406.32359907 351.07988135 408.10061576 349.29348461 409.87506104 347.50366211 C410.39101263 346.99799764 410.90696422 346.49233318 411.43855071 345.97134554 C418.82077255 338.4477435 420.86336749 330.39692181 420.78845215 320.03720093 C420.23795891 312.97882182 417.62768186 306.36683998 412.5032959 301.38095093 C386.4871575 281.86884713 368.25337951 301.49497293 349.4979248 320.20932007 Z M336.88635254 492.93197632 C335.72673202 494.11223759 334.5692664 495.29461824 333.41345215 496.47860718 C332.14097806 497.76862892 330.8681805 499.05833165 329.59509277 500.3477478 C327.5908499 502.38269398 325.58894737 504.41975512 323.59289551 506.46273804 C314.49839919 515.7598148 305.74932029 524.15900907 293.8782959 529.81845093 C292.85478027 530.31216187 291.83126465 530.8058728 290.7767334 531.31454468 C290.02649902 531.66645874 289.27626465 532.0183728 288.5032959 532.38095093 C288.5032959 532.71095093 288.5032959 533.04095093 288.5032959 533.38095093 C292.87738894 533.50584815 297.2504998 533.59588874 301.62585449 533.65560913 C303.10976268 533.6805393 304.59355085 533.71449718 306.07702637 533.75814819 C316.22171793 534.04887604 324.82431948 533.68345295 332.63562012 526.38998413 C339.07157081 519.67288493 340.85394279 513.72231166 340.76696777 504.5899353 C340.74183105 503.55159546 340.71669434 502.51325562 340.6907959 501.44345093 C340.67726074 500.37804077 340.66372559 499.31263062 340.64978027 498.2149353 C340.61464314 495.60307505 340.56544774 492.99228459 340.5032959 490.38095093 C339.01354002 490.26461246 339.01354002 490.26461246 336.88635254 492.93197632 Z " fill="#5A9A6A" transform="translate(196.4967041015625,56.619049072265625)"/>
<path d="M0 0 C3.09192517 1.36262728 4.25330499 1.1482905 7.4375 0.07421875 C10.37330552 -1.31039875 13.22710356 -2.78480073 16.08984375 -4.31054688 C27.04185807 -10.00318729 39.62564003 -10.90181685 51.47583008 -7.48974609 C58.68891927 -5.11041882 64.67470211 -1.84054199 70.4375 3.07421875 C71.71753906 4.15316406 71.71753906 4.15316406 73.0234375 5.25390625 C82.249871 13.70454354 88.99974165 25.5750353 89.80859375 38.2734375 C90.39216237 59.63157641 78.8810266 73.73968364 64.84863281 88.77685547 C58.6637215 95.25779355 52.25418211 101.28313938 45.22265625 106.84765625 C42.74645441 108.82722855 40.34624918 110.87331868 37.95532227 112.9543457 C30.14914665 119.72098426 21.8643889 125.79465698 13.39111328 131.69873047 C12.15843212 132.5666292 10.94060145 133.45639325 9.74560547 134.37548828 C7.41619381 136.11047272 5.91236316 137.06895919 2.96875 137.1015625 C-0.39502752 135.73632564 -3.17456003 133.79448658 -6.0625 131.63671875 C-6.67343506 131.1893335 -7.28437012 130.74194824 -7.91381836 130.28100586 C-9.80492077 128.88942155 -11.68493567 127.48400077 -13.5625 126.07421875 C-14.40772217 125.44386719 -14.40772217 125.44386719 -15.27001953 124.80078125 C-23.64028534 118.54114811 -31.64634202 111.89558893 -39.5625 105.07421875 C-40.325625 104.42453125 -41.08875 103.77484375 -41.875 103.10546875 C-46.67135537 98.98360085 -51.13228603 94.58401741 -55.5625 90.07421875 C-56.366875 89.27242188 -57.17125 88.470625 -58 87.64453125 C-69.75972479 75.84895364 -82.49410039 61.78136408 -82.8125 44.13671875 C-82.60697182 28.70155273 -76.79691986 16.64995461 -66.26953125 5.5859375 C-47.29050202 -12.0237534 -21.58768797 -13.59102916 0 0 Z " fill="#5A9A6A" transform="translate(346.5625,192.92578125)"/>
</svg>
